<svg width="17" height="17" viewBox="0 0 17 17" fill="none" xmlns="http://www.w3.org/2000/svg">
<g id="attach_file_black_24dp 1" clip-path="url(#clip0_136_2505)">
<path id="Vector" d="M11.3927 4.63967L11.3927 12.0802C11.3927 13.51 10.2346 14.6682 8.80471 14.6682C7.37484 14.6682 6.21671 13.51 6.21671 12.0802L6.21671 3.99267C6.21671 3.09982 6.94135 2.37518 7.83421 2.37518C8.72707 2.37518 9.45171 3.09982 9.45171 3.99267L9.45171 10.7862C9.45171 11.142 9.16056 11.4332 8.80471 11.4332C8.44886 11.4332 8.15771 11.142 8.15771 10.7862L8.15771 4.63967H7.18721L7.18721 10.7862C7.18721 11.679 7.91185 12.4037 8.80471 12.4037C9.69757 12.4037 10.4222 11.679 10.4222 10.7862L10.4222 3.99267C10.4222 2.56281 9.26408 1.40468 7.83421 1.40468C6.40434 1.40468 5.24622 2.56281 5.24622 3.99267L5.24622 12.0802C5.24622 14.047 6.83783 15.6387 8.80471 15.6387C10.7716 15.6387 12.3632 14.047 12.3632 12.0802L12.3632 4.63967H11.3927Z" fill="white"/>
</g>
<defs>
<clipPath id="clip0_136_2505">
<rect width="15.528" height="15.528" fill="white" transform="translate(0.717285 0.757874)"/>
</clipPath>
</defs>
</svg>
