<svg width="20" height="21" viewBox="0 0 20 21" fill="none" xmlns="http://www.w3.org/2000/svg">
<g id="notification">
<g id="vuesax/outline/notification">
<g id="notification_2">
<path id="Vector" d="M9.95581 17.6006C8.07143 17.6006 6.18704 17.3014 4.39971 16.7029C3.72036 16.4684 3.20276 15.9912 2.97631 15.3685C2.74178 14.7458 2.82265 14.0583 3.19467 13.4437L4.12474 11.899C4.31883 11.5755 4.49676 10.9285 4.49676 10.5484L4.49676 8.21107C4.49676 5.20253 6.94727 2.75202 9.95581 2.75202C12.9644 2.75202 15.4149 5.20253 15.4149 8.21107V10.5484C15.4149 10.9204 15.5928 11.5755 15.7869 11.9071L16.7089 13.4437C17.0566 14.026 17.1213 14.7296 16.8868 15.3685C16.6523 16.0074 16.1427 16.4927 15.5038 16.7029C13.7246 17.3014 11.8402 17.6006 9.95581 17.6006ZM9.95581 3.96514C7.61853 3.96514 5.70988 5.8657 5.70988 8.21107L5.70988 10.5484C5.70988 11.1387 5.46726 12.0122 5.16802 12.5217L4.23796 14.0664C4.06004 14.3657 4.01151 14.6811 4.11665 14.948C4.2137 15.2229 4.45632 15.4332 4.78791 15.5464C8.16848 16.6787 11.7512 16.6787 15.1318 15.5464C15.423 15.4494 15.6494 15.231 15.7545 14.9399C15.8597 14.6487 15.8354 14.3333 15.6737 14.0664L14.7436 12.5217C14.4363 11.996 14.2017 11.1307 14.2017 10.5403V8.21107C14.2017 5.8657 12.3012 3.96514 9.95581 3.96514Z" fill="#898989"/>
<path id="Vector_2" d="M11.4607 4.1835C11.4041 4.1835 11.3475 4.17541 11.2909 4.15924C11.0564 4.09454 10.8299 4.04602 10.6116 4.01366C9.92412 3.9247 9.26094 3.97323 8.63821 4.15924C8.41176 4.23203 8.16913 4.15924 8.01547 3.9894C7.86181 3.81957 7.81328 3.57694 7.90225 3.35858C8.23383 2.50939 9.04258 1.95136 9.96456 1.95136C10.8865 1.95136 11.6953 2.50131 12.0269 3.35858C12.1077 3.57694 12.0673 3.81957 11.9136 3.9894C11.7923 4.1188 11.6225 4.1835 11.4607 4.1835Z" fill="#898989"/>
<path id="Vector_3" d="M9.95615 19.4446C9.15549 19.4446 8.37909 19.1211 7.81296 18.555C7.24684 17.9888 6.92334 17.2124 6.92334 16.4118H8.13646C8.13646 16.8889 8.33056 17.358 8.67024 17.6977C9.00991 18.0374 9.47899 18.2315 9.95615 18.2315C10.959 18.2315 11.7758 17.4146 11.7758 16.4118H12.989C12.989 18.0859 11.6303 19.4446 9.95615 19.4446Z" fill="#898989"/>
</g>
</g>
</g>
</svg>
