<svg width="21" height="21" viewBox="0 0 21 21" fill="none" xmlns="http://www.w3.org/2000/svg">
<path d="M10.0338 18.5873C5.46438 18.5873 1.74414 14.8671 1.74414 10.2976C1.74414 5.72819 5.46438 2.00795 10.0338 2.00795C14.6032 2.00795 18.3235 5.72819 18.3235 10.2976C18.3235 14.8671 14.6032 18.5873 10.0338 18.5873ZM10.0338 3.22107C6.12756 3.22107 2.95726 6.39945 2.95726 10.2976C2.95726 14.1958 6.12756 17.3742 10.0338 17.3742C13.9401 17.3742 17.1104 14.1958 17.1104 10.2976C17.1104 6.39945 13.9401 3.22107 10.0338 3.22107Z" fill="#898989"/>
<path d="M18.5255 19.396C18.3718 19.396 18.2182 19.3394 18.0969 19.2181L16.4794 17.6006C16.2448 17.3661 16.2448 16.9779 16.4794 16.7433C16.7139 16.5088 17.1021 16.5088 17.3366 16.7433L18.9541 18.3608C19.1887 18.5954 19.1887 18.9836 18.9541 19.2181C18.8328 19.3394 18.6792 19.396 18.5255 19.396Z" fill="#898989"/>
</svg>
