<svg width="21" height="21" viewBox="0 0 21 21" fill="none" xmlns="http://www.w3.org/2000/svg">
<g id="setting-2">
<g id="vuesax/outline/setting-2">
<g id="setting-2_2">
<path id="Vector" d="M10.5921 13.7348C8.91802 13.7348 7.55933 12.3761 7.55933 10.7019C7.55933 9.02784 8.91802 7.66914 10.5921 7.66914C12.2662 7.66914 13.6249 9.02784 13.6249 10.7019C13.6249 12.3761 12.2662 13.7348 10.5921 13.7348ZM10.5921 8.88226C9.58929 8.88226 8.77245 9.6991 8.77245 10.7019C8.77245 11.7048 9.58929 12.5216 10.5921 12.5216C11.595 12.5216 12.4118 11.7048 12.4118 10.7019C12.4118 9.6991 11.595 8.88226 10.5921 8.88226Z" fill="#898989"/>
<path id="Vector_2" d="M13.1886 18.9431C13.0187 18.9431 12.8489 18.9188 12.6791 18.8784C12.1776 18.7409 11.7571 18.4255 11.4902 17.9807L11.3931 17.8189C10.916 16.994 10.2609 16.994 9.78374 17.8189L9.69478 17.9726C9.42789 18.4255 9.00734 18.749 8.50591 18.8784C7.9964 19.0159 7.47072 18.9431 7.0259 18.6762L5.63486 17.8755C5.14152 17.5925 4.78567 17.1315 4.63201 16.5735C4.48643 16.0154 4.55922 15.4412 4.84228 14.9479C5.07682 14.5354 5.14152 14.1634 5.00403 13.9289C4.86655 13.6943 4.51878 13.5568 4.04162 13.5568C2.86085 13.5568 1.89844 12.5944 1.89844 11.4136L1.89844 9.99025C1.89844 8.80947 2.86085 7.84706 4.04162 7.84706C4.51878 7.84706 4.86655 7.70958 5.00403 7.47504C5.14152 7.2405 5.08491 6.86848 4.84228 6.45601C4.55922 5.96268 4.48643 5.38038 4.63201 4.83043C4.77758 4.27239 5.13343 3.81141 5.63486 3.52834L7.03399 2.72768C7.94788 2.18582 9.15291 2.50123 9.70286 3.43129L9.79991 3.59304C10.2771 4.41797 10.9322 4.41797 11.4093 3.59304L11.4983 3.43938C12.0482 2.50123 13.2533 2.18582 14.1752 2.73577L15.5663 3.53643C16.0596 3.81949 16.4155 4.28048 16.5691 4.83852C16.7147 5.39655 16.6419 5.97077 16.3589 6.4641C16.1243 6.87656 16.0596 7.24859 16.1971 7.48313C16.3346 7.71766 16.6824 7.85515 17.1595 7.85515C18.3403 7.85515 19.3027 8.81756 19.3027 9.99833V11.4217C19.3027 12.6025 18.3403 13.5649 17.1595 13.5649C16.6824 13.5649 16.3346 13.7024 16.1971 13.9369C16.0596 14.1715 16.1162 14.5435 16.3589 14.956C16.6419 15.4493 16.7228 16.0316 16.5691 16.5815C16.4236 17.1396 16.0677 17.6006 15.5663 17.8836L14.1672 18.6843C13.8598 18.8541 13.5282 18.9431 13.1886 18.9431ZM10.5925 15.9507C11.3123 15.9507 11.9835 16.4036 12.4445 17.2043L12.5335 17.3579C12.6305 17.5278 12.7923 17.6491 12.9864 17.6976C13.1805 17.7461 13.3746 17.7219 13.5363 17.6248L14.9355 16.8161C15.1457 16.6948 15.3075 16.4926 15.3722 16.25C15.4369 16.0073 15.4045 15.7566 15.2832 15.5464C14.8222 14.7538 14.7656 13.9369 15.1215 13.3142C15.4773 12.6915 16.2133 12.3356 17.1353 12.3356C17.6529 12.3356 18.0653 11.9232 18.0653 11.4056V9.98216C18.0653 9.47265 17.6529 9.0521 17.1353 9.0521C16.2133 9.0521 15.4773 8.69625 15.1215 8.07351C14.7656 7.45078 14.8222 6.63394 15.2832 5.84137C15.4045 5.63109 15.4369 5.38038 15.3722 5.13775C15.3075 4.89513 15.1538 4.70103 14.9436 4.57163L13.5444 3.77097C13.1967 3.56069 12.7357 3.68201 12.5254 4.03786L12.4364 4.19152C11.9754 4.99218 11.3042 5.44508 10.5844 5.44508C9.86461 5.44508 9.19335 4.99218 8.73236 4.19152L8.6434 4.02977C8.44121 3.69009 7.98832 3.56878 7.64055 3.77097L6.24142 4.57972C6.03114 4.70103 5.86939 4.90322 5.80469 5.14584C5.73999 5.38847 5.77234 5.63918 5.89366 5.84945C6.35464 6.64203 6.41125 7.45886 6.05541 8.0816C5.69956 8.70434 4.96359 9.06019 4.04162 9.06019C3.52402 9.06019 3.11156 9.47265 3.11156 9.99025L3.11156 11.4136C3.11156 11.9232 3.52402 12.3437 4.04162 12.3437C4.96359 12.3437 5.69956 12.6996 6.05541 13.3223C6.41125 13.945 6.35464 14.7619 5.89366 15.5544C5.77234 15.7647 5.73999 16.0154 5.80469 16.258C5.86939 16.5007 6.02306 16.6948 6.23333 16.8242L7.63247 17.6248C7.8023 17.73 8.00449 17.7542 8.1905 17.7057C8.3846 17.6572 8.54635 17.5278 8.65149 17.3579L8.74045 17.2043C9.20144 16.4117 9.8727 15.9507 10.5925 15.9507Z" fill="#898989"/>
</g>
</g>
</g>
</svg>
